<?xml version="1.0" encoding="UTF-8"?>
<svg width="700pt" height="700pt" version="1.1" viewBox="0 0 700 700" xmlns="http://www.w3.org/2000/svg">
 <g>
  <path d="m332.5 525c-86.836 0-157.5-70.664-157.5-157.5v-227.5c0-57.891 47.109-105 105-105h105c57.891 0 105 47.109 105 105v227.5c0 86.836-70.664 157.5-157.5 157.5zm-52.5-455c-38.605 0-70 31.395-70 70v227.5c0 67.551 54.949 122.5 122.5 122.5s122.5-54.949 122.5-122.5v-227.5c0-38.605-31.395-70-70-70z"/>
  <path d="m472.5 210h-140c-9.6602 0-17.5-7.8398-17.5-17.5s7.8398-17.5 17.5-17.5h140c9.6602 0 17.5 7.8398 17.5 17.5s-7.8398 17.5-17.5 17.5z"/>
  <path d="m332.5 210c-9.6602 0-17.5-7.8398-17.5-17.5v-140c0-9.6602 7.8398-17.5 17.5-17.5s17.5 7.8398 17.5 17.5v140c0 9.6602-7.8398 17.5-17.5 17.5z"/>
 </g>
</svg>
